<svg xmlns="http://www.w3.org/2000/svg" width="440" height="280" viewBox="0 0 440 280" fill="none">
  <defs>
    <linearGradient id="bgGrad" x1="0%" y1="0%" x2="100%" y2="100%">
      <stop offset="0%" stop-color="#090d16" />
      <stop offset="50%" stop-color="#0f172a" />
      <stop offset="100%" stop-color="#022c22" />
    </linearGradient>
    <linearGradient id="shieldGrad" x1="0%" y1="0%" x2="100%" y2="100%">
      <stop offset="0%" stop-color="#10b981" />
      <stop offset="100%" stop-color="#047857" />
    </linearGradient>
    <filter id="glow" x="-20%" y="-20%" width="140%" height="140%">
      <feGaussianBlur stdDeviation="12" result="blur" />
      <feComposite in="SourceGraphic" in2="blur" operator="over" />
    </filter>
  </defs>

  <!-- Background -->
  <rect width="440" height="280" fill="url(#bgGrad)" />

  <!-- Subtle grid lines -->
  <path d="M0 70 H440 M0 140 H440 M0 210 H440 M110 0 V280 M220 0 V280 M330 0 V280" stroke="#ffffff" stroke-opacity="0.04" stroke-width="1" />

  <!-- Ambient Glow -->
  <circle cx="220" cy="90" r="70" fill="#10b981" fill-opacity="0.15" filter="url(#glow)" />

  <!-- Shield Icon -->
  <g transform="translate(196, 50)">
    <rect width="48" height="48" rx="14" fill="url(#shieldGrad)" />
    <path d="M24 11 L35 15.5 V23.5 C35 30.5 29.5 35 24 37 C18.5 35 13 30.5 13 23.5 V15.5 Z" fill="#ffffff" fill-opacity="0.95" />
    <path d="M19.5 23.5 L22.5 27 L28.5 20.5" stroke="#047857" stroke-width="2.5" stroke-linecap="round" stroke-linejoin="round" />
  </g>

  <!-- Title & Tagline -->
  <text x="220" y="132" font-family="-apple-system, BlinkMacSystemFont, 'Segoe UI', Roboto, sans-serif" font-weight="900" font-size="22" fill="#ffffff" text-anchor="middle" letter-spacing="-0.5">
    NoLogin Tools
  </text>
  <text x="220" y="156" font-family="-apple-system, BlinkMacSystemFont, 'Segoe UI', Roboto, sans-serif" font-weight="700" font-size="13" fill="#10b981" text-anchor="middle" letter-spacing="0.5">
    ZERO-SIGNUP SWITCHER
  </text>
  <text x="220" y="184" font-family="-apple-system, BlinkMacSystemFont, 'Segoe UI', Roboto, sans-serif" font-weight="500" font-size="12" fill="#94a3b8" text-anchor="middle">
    Instant In-Browser Privacy Alternatives
  </text>

  <!-- Feature Pills -->
  <g transform="translate(55, 218)">
    <rect x="0" y="0" width="100" height="26" rx="13" fill="#ffffff" fill-opacity="0.08" stroke="#ffffff" stroke-opacity="0.12" />
    <text x="50" y="17" font-family="-apple-system, BlinkMacSystemFont, 'Segoe UI', Roboto, sans-serif" font-weight="700" font-size="10.5" fill="#e2e8f0" text-anchor="middle">⚡ 0 Accounts</text>

    <rect x="115" y="0" width="100" height="26" rx="13" fill="#ffffff" fill-opacity="0.08" stroke="#ffffff" stroke-opacity="0.12" />
    <text x="165" y="17" font-family="-apple-system, BlinkMacSystemFont, 'Segoe UI', Roboto, sans-serif" font-weight="700" font-size="10.5" fill="#e2e8f0" text-anchor="middle">🔒 100% Local</text>

    <rect x="230" y="0" width="100" height="26" rx="13" fill="#ffffff" fill-opacity="0.08" stroke="#ffffff" stroke-opacity="0.12" />
    <text x="280" y="17" font-family="-apple-system, BlinkMacSystemFont, 'Segoe UI', Roboto, sans-serif" font-weight="700" font-size="10.5" fill="#e2e8f0" text-anchor="middle">🛡️ Zero Telemetry</text>
  </g>
</svg>